<svg width="70" height="70" viewBox="0 0 70 70" fill="none" xmlns="http://www.w3.org/2000/svg">
<path d="M47.588 30.6667C47.588 33.612 45.2 36 42.2547 36C39.3093 36 36.9213 33.612 36.9213 30.6667C36.9213 27.7213 39.3093 25.3333 42.2547 25.3333C45.2 25.3333 47.588 27.7213 47.588 30.6667Z" stroke="#505050" stroke-width="2.66667" stroke-miterlimit="10" stroke-linecap="round" stroke-linejoin="round"/>
<path d="M60.9213 18.6667C60.9213 21.612 58.5333 24 55.588 24C52.6426 24 50.2546 21.612 50.2546 18.6667C50.2546 15.7213 52.6426 13.3333 55.588 13.3333C58.5333 13.3333 60.9213 15.7213 60.9213 18.6667Z" stroke="#505050" stroke-width="2.66667" stroke-miterlimit="10" stroke-linecap="round" stroke-linejoin="round"/>
<path d="M44.9213 9.33333C44.9213 12.2787 42.5333 14.6667 39.588 14.6667C36.6426 14.6667 34.2546 12.2787 34.2546 9.33333C34.2546 6.388 36.6426 4 39.588 4C42.5333 4 44.9213 6.388 44.9213 9.33333Z" stroke="#505050" stroke-width="2.66667" stroke-miterlimit="10" stroke-linecap="round" stroke-linejoin="round"/>
<path d="M24.6333 58.6667C25.144 58.156 25.6666 57.3333 27.3 57.3333C28.932 57.3333 45.2893 57.3333 46.9213 57.3333C48.4026 57.3333 56.552 49.1613 57.588 48C58.584 46.8827 63.024 40.212 64.2546 37.3333C63.4813 36.292 61.392 35.4267 58.9213 36C56.564 36.548 55.1773 38.24 53.588 41.3333L47.7813 44.348" stroke="#505050" stroke-width="2.66667" stroke-miterlimit="10" stroke-linecap="round" stroke-linejoin="round"/>
<path d="M32.2546 49.3334C32.2546 49.3334 42.9213 49.3334 44.2546 49.3334C49.588 49.3334 49.588 42.6667 44.2546 42.6667C42.9213 42.6667 39.9626 42.6667 36.2546 42.6667C35.144 42.6667 33.06 40 31.3 40C30.5173 40 26.4347 40 24.6333 40C22.8307 40 20.5933 41.4614 19.3 42.6667C17.3013 44.6654 13.8733 47.908 13.8733 47.908" stroke="#505050" stroke-width="2.66667" stroke-miterlimit="10" stroke-linecap="round" stroke-linejoin="round"/>
<path d="M6 50.6333L11.3 45.3333L25.9667 60L20.6106 65.3547" stroke="#505050" stroke-width="2.66667" stroke-miterlimit="10" stroke-linecap="round" stroke-linejoin="round"/>
</svg>
