<svg width="70" height="70" viewBox="0 0 70 70" fill="none" xmlns="http://www.w3.org/2000/svg">
<path d="M31.336 51.1467L26.6578 49.356C24.56 46.0227 21.8516 42.2733 16.6578 45.356L19.6614 52.2387L24.9344 57.9387C24.9344 57.9387 31.8016 62.6893 32.6578 62.6893C34.2896 62.6893 50.6474 62.6893 52.2792 62.6893L55.0182 65.356" stroke="#505050" stroke-width="2.66667" stroke-miterlimit="10" stroke-linecap="round" stroke-linejoin="round"/>
<path d="M47.3245 54.6893C47.3245 54.6893 36.6579 54.6893 35.3245 54.6893C29.9912 54.6893 29.9912 48.0227 35.3245 48.0227C36.6579 48.0227 39.6167 48.0227 43.3245 48.0227C44.4349 48.0227 46.5183 45.356 48.2792 45.356C49.062 45.356 53.1443 45.356 54.9459 45.356C56.748 45.356 58.986 46.8173 60.2792 48.0227C62.2781 50.0213 65.7043 53.264 65.7043 53.264" stroke="#505050" stroke-width="2.66667" stroke-miterlimit="10" stroke-linecap="round" stroke-linejoin="round"/>
<path d="M40.5 27.2027C40.8937 25.384 41.2224 24.328 41.2224 24.328L37.4313 19.9227L32.1699 18.0507L30.8647 18.444L26.3469 20.9947C26.3469 20.9947 26.1667 23.0653 26.9016 23.976C28.8464 26.388 33.1073 26.828 34.3443 28C35.7995 29.3827 36.8308 31.672 36.7912 33.2187C36.7511 34.7653 34.3339 35.124 32.9396 34.5027C32.1193 34.1387 25.1152 31.7933 20.6729 30.252C18.16 29.38 16.0043 27.7267 14.4964 25.536C11.7172 21.4974 8.3688 15.8867 8.3688 15.8867L5 14.9187" stroke="#505050" stroke-width="2.66667" stroke-miterlimit="10" stroke-linecap="round" stroke-linejoin="round"/>
<path d="M18.8516 4C18.8516 4 30.0713 6.95732 38.2505 9.22132C40.1021 9.73332 41.7115 10.8787 42.8095 12.4547L49.0865 22.6933L45.5333 33.1373" stroke="#505050" stroke-width="2.66667" stroke-miterlimit="10" stroke-linecap="round" stroke-linejoin="round"/>
<path d="M33.8641 27.66C34.9995 27.0413 36.3005 26.6893 37.6849 26.6893C42.1032 26.6893 45.6849 30.272 45.6849 34.6893C45.6849 39.1067 42.1032 42.6893 37.6849 42.6893C33.2667 42.6893 29.6849 39.1067 29.6849 34.6893C29.6849 34.2427 29.7213 33.8053 29.7917 33.3787" stroke="#505050" stroke-width="2.66667" stroke-miterlimit="10" stroke-linecap="round" stroke-linejoin="round"/>
</svg>
