<svg width="70" height="70" viewBox="0 0 70 70" fill="none" xmlns="http://www.w3.org/2000/svg">
<path d="M37.0013 15.208V9.87467" stroke="currentColor" stroke-width="2.66667" stroke-miterlimit="10" stroke-linecap="round" stroke-linejoin="round"/>
<path d="M31.668 23.3333C31.668 25.5427 35.8467 27.3333 41.0013 27.3333C46.156 27.3333 50.3347 25.5427 50.3347 23.3333C50.3347 21.124 46.156 19.3333 41.0013 19.3333C35.8467 19.3333 31.668 21.124 31.668 23.3333Z" stroke="currentColor" stroke-width="2.66667" stroke-miterlimit="10" stroke-linecap="round" stroke-linejoin="round"/>
<path d="M31.6667 23.3333V30C31.6667 32.2093 35.8467 34 41 34C46.156 34 50.3333 32.2093 50.3333 30V23.3333" stroke="currentColor" stroke-width="2.66667" stroke-miterlimit="10" stroke-linecap="round" stroke-linejoin="round"/>
<path d="M18.3333 16.6667V23.3333C18.3333 25.5427 22.5133 27.3333 27.668 27.3333" stroke="currentColor" stroke-width="2.66667" stroke-miterlimit="10" stroke-linecap="round" stroke-linejoin="round"/>
<path d="M18.3347 10C18.3347 12.2093 22.5133 14 27.668 14C32.8227 14 37.0013 12.2093 37.0013 10C37.0013 7.79067 32.8227 6 27.668 6C22.5133 6 18.3347 7.79067 18.3347 10Z" stroke="currentColor" stroke-width="2.66667" stroke-miterlimit="10" stroke-linecap="round" stroke-linejoin="round"/>
<path d="M18.3347 9.99999V16.6667C18.3347 18.876 22.5133 20.6667 27.668 20.6667" stroke="currentColor" stroke-width="2.66667" stroke-miterlimit="10" stroke-linecap="round" stroke-linejoin="round"/>
<path d="M62.3333 63.3333H14.3333V39.3333H62.3333V63.3333Z" stroke="currentColor" stroke-width="2.66667" stroke-miterlimit="10" stroke-linecap="round" stroke-linejoin="round"/>
<path d="M30.3333 44.6667H23.052C23.052 46.1533 21.536 47.3587 19.6667 47.3587V55.308C21.536 55.308 23.052 56.5133 23.052 58H30.3333" stroke="currentColor" stroke-width="2.66667" stroke-miterlimit="10" stroke-linecap="round" stroke-linejoin="round"/>
<path d="M46.3333 44.6667H53.6146C53.6146 46.1533 55.1306 47.3587 57 47.3587V55.308C55.1306 55.308 53.6146 56.5133 53.6146 58H46.3333" stroke="currentColor" stroke-width="2.66667" stroke-miterlimit="10" stroke-linecap="round" stroke-linejoin="round"/>
<path d="M43.6667 51.3333C43.6667 55.0147 41.2787 58 38.3333 58C35.388 58 33 55.0147 33 51.3333C33 47.652 35.388 44.6667 38.3333 44.6667C41.2787 44.6667 43.6667 47.652 43.6667 51.3333Z" stroke="currentColor" stroke-width="2.66667" stroke-miterlimit="10" stroke-linecap="round" stroke-linejoin="round"/>
<path d="M26.3333 51.3333H29" stroke="currentColor" stroke-width="2.66667" stroke-miterlimit="10" stroke-linejoin="round"/>
<path d="M47.6667 51.3333H50.3333" stroke="currentColor" stroke-width="2.66667" stroke-miterlimit="10" stroke-linejoin="round"/>
<path d="M8.10534 48.74C6.17601 45.9014 5 42.1333 5 38C5 31.0187 8.35333 25.0813 13.0293 22.896L12.2773 30" stroke="currentColor" stroke-width="2.66667" stroke-miterlimit="10" stroke-linecap="round" stroke-linejoin="round"/>
<path d="M5.44397 22.896H13.0293" stroke="currentColor" stroke-width="2.66667" stroke-miterlimit="10" stroke-linecap="round" stroke-linejoin="round"/>
<path d="M55.816 12.0813C59.6213 13.7773 62.3333 18.176 62.3333 23.3333C62.3333 26.4253 61.3587 29.2453 59.7573 31.3733L58 25.2773" stroke="currentColor" stroke-width="2.66667" stroke-miterlimit="10" stroke-linecap="round" stroke-linejoin="round"/>
<path d="M65.8893 28.2226L59.7573 31.3733" stroke="currentColor" stroke-width="2.66667" stroke-miterlimit="10" stroke-linecap="round" stroke-linejoin="round"/>
</svg>
